ffmpeg started on 2025-05-12 at 17:37:43
Report written to "D:\Convert\FFMetrics\reports\ssim_report-6.txt"
Log level: 32
Command line:
ffmpeg -hide_banner -nostdin -i "G:\\\xc0\xed\xe8\xec\xe5\\\xce\xed\xe3\xee\xe8\xed\xe3\xe8\\!_35_\xcb\xe5\xf2\xee_2024\\DreamCast\\\xce\xef\xe5\xf0\xe0\xf6\xe8\xff - \xd1\xe5\xec\xe5\xe9\xea\xe0 \xa8\xe4\xe7\xe0\xea\xf3\xf0\xe0\\[DC] Yozakura-san Chi no Daisakusen - 17_Telegram_HEVC.mkv" -i "G:\\\xc0\xed\xe8\xec\xe5\\\xce\xed\xe3\xee\xe8\xed\xe3\xe8\\!_35_\xcb\xe5\xf2\xee_2024\\DreamCast\\\xce\xef\xe5\xf0\xe0\xf6\xe8\xff - \xd1\xe5\xec\xe5\xe9\xea\xe0 \xa8\xe4\xe7\xe0\xea\xf3\xf0\xe0\\[DC] Yozakura-san Chi no Daisakusen - 17_Telegram.mp4" -lavfi "[0:v]settb=AVTB,setpts=PTS-STARTPTS,format=pix_fmts=yuv420p10,fps=24000/1001,scale=1920:1080:flags=bicubic[main];[1:v]settb=AVTB,setpts=PTS-STARTPTS,format=pix_fmts=yuv420p,fps=24000/1001,scale=1920:1080:flags=bicubic[ref];[main][ref]ssim=eof_action=endall:stats_file='D\\:/Convert/FFMetrics/logs/ssim_logfile-6.txt'" -f null -
Input #0, matroska,webm, from 'G:\Аниме\Онгоинги\!_35_Лето_2024\DreamCast\Операция - Семейка Ёдзакура\[DC] Yozakura-san Chi no Daisakusen - 17_Telegram_HEVC.mkv':
  Metadata:
    COMPATIBLE_BRANDS: isomiso2avc1mp41
    MAJOR_BRAND     : isom
    MINOR_VERSION   : 512
    ENCODER         : Lavf61.7.100
  Duration: 00:24:13.65, start: -0.021000, bitrate: 1240 kb/s
  Stream #0:0: Video: hevc (Main 10), yuv420p10le(tv, bt709, progressive), 1920x1080 [SAR 1:1 DAR 16:9], 23.98 fps, 23.98 tbr, 1k tbn (default)
      Metadata:
        HANDLER_NAME    : VideoHandler
        VENDOR_ID       : [0][0][0][0]
        ENCODER         : Lavc61.19.100 libx265
        BPS             : 1043582
        DURATION        : 00:24:13.535708333
        NUMBER_OF_FRAMES: 34850
        NUMBER_OF_BYTES : 189610432
        _STATISTICS_WRITING_APP: mkvpropedit v66.0.0 ('Josie') 64-bit
        _STATISTICS_WRITING_DATE_UTC: 2025-05-08 15:53:57
        _STATISTICS_TAGS: BPS DURATION NUMBER_OF_FRAMES NUMBER_OF_BYTES
  Stream #0:1: Audio: aac (LC), 48000 Hz, stereo, fltp (default)
      Metadata:
        HANDLER_NAME    : SoundHandler
        VENDOR_ID       : [0][0][0][0]
        ENCODER         : Lavc61.19.100 aac
        BPS             : 193310
        DURATION        : 00:24:13.653000000
        NUMBER_OF_FRAMES: 68141
        NUMBER_OF_BYTES : 35125867
        _STATISTICS_WRITING_APP: mkvpropedit v66.0.0 ('Josie') 64-bit
        _STATISTICS_WRITING_DATE_UTC: 2025-05-08 15:53:57
        _STATISTICS_TAGS: BPS DURATION NUMBER_OF_FRAMES NUMBER_OF_BYTES
Input #1, mov,mp4,m4a,3gp,3g2,mj2, from 'G:\Аниме\Онгоинги\!_35_Лето_2024\DreamCast\Операция - Семейка Ёдзакура\[DC] Yozakura-san Chi no Daisakusen - 17_Telegram.mp4':
  Metadata:
    major_brand     : isom
    minor_version   : 512
    compatible_brands: isomiso2avc1mp41
    encoder         : Lavf61.1.100
  Duration: 00:24:13.60, start: 0.000000, bitrate: 3453 kb/s
  Stream #1:0[0x1](und): Video: h264 (High) (avc1 / 0x31637661), yuv420p(tv, bt709, progressive), 1920x1080 [SAR 1:1 DAR 16:9], 3305 kb/s, 23.98 fps, 23.98 tbr, 24k tbn (default)
      Metadata:
        handler_name    : VideoHandler
        vendor_id       : [0][0][0][0]
        encoder         : Lavc61.3.100 h264_qsv
  Stream #1:1[0x2](und): Audio: aac (HE-AACv2) (mp4a / 0x6134706D), 48000 Hz, stereo, fltp, 144 kb/s (default)
      Metadata:
        handler_name    : SoundHandler
        vendor_id       : [0][0][0][0]
Stream mapping:
  Stream #0:0 (hevc) -> settb:default
  Stream #1:0 (h264) -> settb:default
  ssim:default -> Stream #0:0 (wrapped_avframe)
  Stream #0:1 -> #0:1 (aac (native) -> pcm_s16le (native))
Output #0, null, to 'pipe:':
  Metadata:
    COMPATIBLE_BRANDS: isomiso2avc1mp41
    MAJOR_BRAND     : isom
    MINOR_VERSION   : 512
    encoder         : Lavf61.7.100
  Stream #0:0: Video: wrapped_avframe, yuv420p10le(tv, bt709, progressive), 1920x1080 [SAR 1:1 DAR 16:9], q=2-31, 200 kb/s, 23.98 fps, 23.98 tbn
      Metadata:
        encoder         : Lavc61.19.100 wrapped_avframe
  Stream #0:1: Audio: pcm_s16le, 48000 Hz, stereo, s16, 1536 kb/s (default)
      Metadata:
        HANDLER_NAME    : SoundHandler
        VENDOR_ID       : [0][0][0][0]
        _STATISTICS_TAGS: BPS DURATION NUMBER_OF_FRAMES NUMBER_OF_BYTES
        BPS             : 193310
        DURATION        : 00:24:13.653000000
        NUMBER_OF_FRAMES: 68141
        NUMBER_OF_BYTES : 35125867
        _STATISTICS_WRITING_APP: mkvpropedit v66.0.0 ('Josie') 64-bit
        _STATISTICS_WRITING_DATE_UTC: 2025-05-08 15:53:57
        encoder         : Lavc61.19.100 pcm_s16le
frame=  163 fps=0.0 q=-0.0 size=N/A time=00:00:06.79 bitrate=N/A speed=12.9x    frame=  424 fps=410 q=-0.0 size=N/A time=00:00:17.68 bitrate=N/A speed=17.1x    frame=  680 fps=440 q=-0.0 size=N/A time=00:00:28.36 bitrate=N/A speed=18.3x    frame=  936 fps=453 q=-0.0 size=N/A time=00:00:39.03 bitrate=N/A speed=18.9x    frame= 1190 fps=459 q=-0.0 size=N/A time=00:00:49.63 bitrate=N/A speed=19.2x    frame= 1450 fps=468 q=-0.0 size=N/A time=00:01:00.47 bitrate=N/A speed=19.5x    frame= 1731 fps=478 q=-0.0 size=N/A time=00:01:12.19 bitrate=N/A speed=  20x    frame= 1961 fps=475 q=-0.0 size=N/A time=00:01:21.79 bitrate=N/A speed=19.8x    frame= 2244 fps=482 q=-0.0 size=N/A time=00:01:33.59 bitrate=N/A speed=20.1x    frame= 2513 fps=487 q=-0.0 size=N/A time=00:01:44.81 bitrate=N/A speed=20.3x    frame= 2786 fps=490 q=-0.0 size=N/A time=00:01:56.19 bitrate=N/A speed=20.5x    frame= 3050 fps=493 q=-0.0 size=N/A time=00:02:07.21 bitrate=N/A speed=20.6x    frame= 3321 fps=494 q=-0.0 size=N/A time=00:02:18.51 bitrate=N/A speed=20.6x    frame= 3570 fps=494 q=-0.0 size=N/A time=00:02:28.89 bitrate=N/A speed=20.6x    frame= 3820 fps=493 q=-0.0 size=N/A time=00:02:39.32 bitrate=N/A speed=20.6x    frame= 3965 fps=481 q=-0.0 size=N/A time=00:02:45.37 bitrate=N/A speed=  20x    frame= 4139 fps=472 q=-0.0 size=N/A time=00:02:52.63 bitrate=N/A speed=19.7x    frame= 4305 fps=463 q=-0.0 size=N/A time=00:02:59.55 bitrate=N/A speed=19.3x    frame= 4526 fps=462 q=-0.0 size=N/A time=00:03:08.77 bitrate=N/A speed=19.3x    frame= 4746 fps=460 q=-0.0 size=N/A time=00:03:17.94 bitrate=N/A speed=19.2x    frame= 4936 fps=456 q=-0.0 size=N/A time=00:03:25.87 bitrate=N/A speed=  19x    frame= 5162 fps=455 q=-0.0 size=N/A time=00:03:35.29 bitrate=N/A speed=  19x    frame= 5334 fps=450 q=-0.0 size=N/A time=00:03:42.47 bitrate=N/A speed=18.8x    frame= 5489 fps=443 q=-0.0 size=N/A time=00:03:48.93 bitrate=N/A speed=18.5x    frame= 5709 fps=443 q=-0.0 size=N/A time=00:03:58.11 bitrate=N/A speed=18.5x    frame= 5888 fps=439 q=-0.0 size=N/A time=00:04:05.57 bitrate=N/A speed=18.3x    frame= 6091 fps=437 q=-0.0 size=N/A time=00:04:14.04 bitrate=N/A speed=18.2x    frame= 6311 fps=437 q=-0.0 size=N/A time=00:04:23.22 bitrate=N/A speed=18.2x    frame= 6525 fps=436 q=-0.0 size=N/A time=00:04:32.14 bitrate=N/A speed=18.2x    frame= 6745 fps=436 q=-0.0 size=N/A time=00:04:41.32 bitrate=N/A speed=18.2x    frame= 6972 fps=436 q=-0.0 size=N/A time=00:04:50.79 bitrate=N/A speed=18.2x    frame= 7193 fps=436 q=-0.0 size=N/A time=00:05:00.00 bitrate=N/A speed=18.2x    frame= 7433 fps=437 q=-0.0 size=N/A time=00:05:10.01 bitrate=N/A speed=18.2x    frame= 7680 fps=438 q=-0.0 size=N/A time=00:05:20.32 bitrate=N/A speed=18.3x    frame= 7949 fps=440 q=-0.0 size=N/A time=00:05:31.53 bitrate=N/A speed=18.4x    frame= 8186 fps=441 q=-0.0 size=N/A time=00:05:41.42 bitrate=N/A speed=18.4x    frame= 8434 fps=442 q=-0.0 size=N/A time=00:05:51.76 bitrate=N/A speed=18.4x    frame= 8644 fps=441 q=-0.0 size=N/A time=00:06:00.52 bitrate=N/A speed=18.4x    frame= 8868 fps=441 q=-0.0 size=N/A time=00:06:09.86 bitrate=N/A speed=18.4x    frame= 9130 fps=442 q=-0.0 size=N/A time=00:06:20.79 bitrate=N/A speed=18.5x    frame= 9392 fps=444 q=-0.0 size=N/A time=00:06:31.72 bitrate=N/A speed=18.5x    frame= 9632 fps=445 q=-0.0 size=N/A time=00:06:41.73 bitrate=N/A speed=18.5x    frame= 9886 fps=446 q=-0.0 size=N/A time=00:06:52.32 bitrate=N/A speed=18.6x    frame=10140 fps=447 q=-0.0 size=N/A time=00:07:02.92 bitrate=N/A speed=18.6x    frame=10411 fps=449 q=-0.0 size=N/A time=00:07:14.22 bitrate=N/A speed=18.7x    frame=10678 fps=450 q=-0.0 size=N/A time=00:07:25.36 bitrate=N/A speed=18.8x    frame=10955 fps=452 q=-0.0 size=N/A time=00:07:36.91 bitrate=N/A speed=18.8x    frame=11203 fps=453 q=-0.0 size=N/A time=00:07:47.25 bitrate=N/A speed=18.9x    frame=11464 fps=454 q=-0.0 size=N/A time=00:07:58.14 bitrate=N/A speed=18.9x    frame=11722 fps=455 q=-0.0 size=N/A time=00:08:08.90 bitrate=N/A speed=  19x    frame=11995 fps=456 q=-0.0 size=N/A time=00:08:20.29 bitrate=N/A speed=  19x    frame=12260 fps=457 q=-0.0 size=N/A time=00:08:31.34 bitrate=N/A speed=19.1x    frame=12525 fps=458 q=-0.0 size=N/A time=00:08:42.39 bitrate=N/A speed=19.1x    frame=12791 fps=459 q=-0.0 size=N/A time=00:08:53.49 bitrate=N/A speed=19.2x    frame=13039 fps=460 q=-0.0 size=N/A time=00:09:03.83 bitrate=N/A speed=19.2x    frame=13299 fps=461 q=-0.0 size=N/A time=00:09:14.67 bitrate=N/A speed=19.2x    frame=13515 fps=460 q=-0.0 size=N/A time=00:09:23.68 bitrate=N/A speed=19.2x    frame=13758 fps=460 q=-0.0 size=N/A time=00:09:33.82 bitrate=N/A speed=19.2x    frame=14026 fps=461 q=-0.0 size=N/A time=00:09:45.00 bitrate=N/A speed=19.2x    frame=14310 fps=463 q=-0.0 size=N/A time=00:09:56.84 bitrate=N/A speed=19.3x    frame=14588 fps=464 q=-0.0 size=N/A time=00:10:08.44 bitrate=N/A speed=19.3x    frame=14847 fps=464 q=-0.0 size=N/A time=00:10:19.24 bitrate=N/A speed=19.4x    frame=15089 fps=464 q=-0.0 size=N/A time=00:10:29.33 bitrate=N/A speed=19.4x    frame=15355 fps=465 q=-0.0 size=N/A time=00:10:40.43 bitrate=N/A speed=19.4x    frame=15610 fps=466 q=-0.0 size=N/A time=00:10:51.06 bitrate=N/A speed=19.4x    frame=15898 fps=467 q=-0.0 size=N/A time=00:11:03.07 bitrate=N/A speed=19.5x    frame=16142 fps=467 q=-0.0 size=N/A time=00:11:13.25 bitrate=N/A speed=19.5x    frame=16395 fps=467 q=-0.0 size=N/A time=00:11:23.80 bitrate=N/A speed=19.5x    frame=16655 fps=468 q=-0.0 size=N/A time=00:11:34.65 bitrate=N/A speed=19.5x    frame=16879 fps=468 q=-0.0 size=N/A time=00:11:43.99 bitrate=N/A speed=19.5x    frame=17093 fps=467 q=-0.0 size=N/A time=00:11:52.92 bitrate=N/A speed=19.5x    frame=17320 fps=466 q=-0.0 size=N/A time=00:12:02.38 bitrate=N/A speed=19.5x    frame=17535 fps=466 q=-0.0 size=N/A time=00:12:11.35 bitrate=N/A speed=19.4x    frame=17797 fps=466 q=-0.0 size=N/A time=00:12:22.28 bitrate=N/A speed=19.5x    frame=18054 fps=467 q=-0.0 size=N/A time=00:12:33.00 bitrate=N/A speed=19.5x    frame=18304 fps=467 q=-0.0 size=N/A time=00:12:43.42 bitrate=N/A speed=19.5x    frame=18569 fps=468 q=-0.0 size=N/A time=00:12:54.48 bitrate=N/A speed=19.5x    frame=18820 fps=468 q=-0.0 size=N/A time=00:13:04.95 bitrate=N/A speed=19.5x    frame=19068 fps=468 q=-0.0 size=N/A time=00:13:15.29 bitrate=N/A speed=19.5x    frame=19293 fps=468 q=-0.0 size=N/A time=00:13:24.67 bitrate=N/A speed=19.5x    frame=19552 fps=468 q=-0.0 size=N/A time=00:13:35.48 bitrate=N/A speed=19.5x    frame=19818 fps=469 q=-0.0 size=N/A time=00:13:46.57 bitrate=N/A speed=19.6x    frame=20064 fps=469 q=-0.0 size=N/A time=00:13:56.83 bitrate=N/A speed=19.6x    frame=20309 fps=469 q=-0.0 size=N/A time=00:14:07.05 bitrate=N/A speed=19.6x    frame=20557 fps=469 q=-0.0 size=N/A time=00:14:17.39 bitrate=N/A speed=19.6x    frame=20775 fps=468 q=-0.0 size=N/A time=00:14:26.49 bitrate=N/A speed=19.5x    frame=21032 fps=469 q=-0.0 size=N/A time=00:14:37.20 bitrate=N/A speed=19.5x    frame=21284 fps=469 q=-0.0 size=N/A time=00:14:47.72 bitrate=N/A speed=19.6x    frame=21547 fps=469 q=-0.0 size=N/A time=00:14:58.68 bitrate=N/A speed=19.6x    frame=21762 fps=469 q=-0.0 size=N/A time=00:15:07.65 bitrate=N/A speed=19.5x    frame=22014 fps=469 q=-0.0 size=N/A time=00:15:18.16 bitrate=N/A speed=19.6x    frame=22288 fps=470 q=-0.0 size=N/A time=00:15:29.59 bitrate=N/A speed=19.6x    frame=22538 fps=470 q=-0.0 size=N/A time=00:15:40.02 bitrate=N/A speed=19.6x    frame=22783 fps=470 q=-0.0 size=N/A time=00:15:50.24 bitrate=N/A speed=19.6x    frame=23029 fps=470 q=-0.0 size=N/A time=00:16:00.50 bitrate=N/A speed=19.6x    frame=23273 fps=470 q=-0.0 size=N/A time=00:16:10.67 bitrate=N/A speed=19.6x    frame=23512 fps=470 q=-0.0 size=N/A time=00:16:20.64 bitrate=N/A speed=19.6x    frame=23779 fps=470 q=-0.0 size=N/A time=00:16:31.78 bitrate=N/A speed=19.6x    frame=24041 fps=471 q=-0.0 size=N/A time=00:16:42.71 bitrate=N/A speed=19.6x    frame=24286 fps=471 q=-0.0 size=N/A time=00:16:52.92 bitrate=N/A speed=19.6x    frame=24518 fps=470 q=-0.0 size=N/A time=00:17:02.60 bitrate=N/A speed=19.6x    frame=24763 fps=470 q=-0.0 size=N/A time=00:17:12.82 bitrate=N/A speed=19.6x    frame=25041 fps=471 q=-0.0 size=N/A time=00:17:24.41 bitrate=N/A speed=19.7x    frame=25295 fps=471 q=-0.0 size=N/A time=00:17:35.01 bitrate=N/A speed=19.7x    frame=25546 fps=472 q=-0.0 size=N/A time=00:17:45.48 bitrate=N/A speed=19.7x    frame=25797 fps=472 q=-0.0 size=N/A time=00:17:55.94 bitrate=N/A speed=19.7x    frame=26061 fps=472 q=-0.0 size=N/A time=00:18:06.96 bitrate=N/A speed=19.7x    frame=26333 fps=472 q=-0.0 size=N/A time=00:18:18.30 bitrate=N/A speed=19.7x    frame=26565 fps=472 q=-0.0 size=N/A time=00:18:27.98 bitrate=N/A speed=19.7x    frame=26774 fps=472 q=-0.0 size=N/A time=00:18:36.69 bitrate=N/A speed=19.7x    frame=27016 fps=472 q=-0.0 size=N/A time=00:18:46.79 bitrate=N/A speed=19.7x    frame=27259 fps=472 q=-0.0 size=N/A time=00:18:56.92 bitrate=N/A speed=19.7x    frame=27530 fps=472 q=-0.0 size=N/A time=00:19:08.23 bitrate=N/A speed=19.7x    frame=27783 fps=472 q=-0.0 size=N/A time=00:19:18.78 bitrate=N/A speed=19.7x    frame=27985 fps=471 q=-0.0 size=N/A time=00:19:27.20 bitrate=N/A speed=19.7x    frame=28246 fps=472 q=-0.0 size=N/A time=00:19:38.09 bitrate=N/A speed=19.7x    frame=28527 fps=472 q=-0.0 size=N/A time=00:19:49.81 bitrate=N/A speed=19.7x    frame=28764 fps=472 q=-0.0 size=N/A time=00:19:59.69 bitrate=N/A speed=19.7x    frame=29033 fps=473 q=-0.0 size=N/A time=00:20:10.91 bitrate=N/A speed=19.7x    frame=29292 fps=473 q=-0.0 size=N/A time=00:20:21.72 bitrate=N/A speed=19.7x    frame=29537 fps=473 q=-0.0 size=N/A time=00:20:31.93 bitrate=N/A speed=19.7x    frame=29795 fps=473 q=-0.0 size=N/A time=00:20:42.69 bitrate=N/A speed=19.7x    frame=30059 fps=474 q=-0.0 size=N/A time=00:20:53.71 bitrate=N/A speed=19.8x    frame=30302 fps=474 q=-0.0 size=N/A time=00:21:03.84 bitrate=N/A speed=19.8x    frame=30571 fps=474 q=-0.0 size=N/A time=00:21:15.06 bitrate=N/A speed=19.8x    frame=30841 fps=474 q=-0.0 size=N/A time=00:21:26.32 bitrate=N/A speed=19.8x    frame=31101 fps=475 q=-0.0 size=N/A time=00:21:37.17 bitrate=N/A speed=19.8x    frame=31338 fps=474 q=-0.0 size=N/A time=00:21:47.05 bitrate=N/A speed=19.8x    frame=31574 fps=474 q=-0.0 size=N/A time=00:21:56.89 bitrate=N/A speed=19.8x    frame=31843 fps=475 q=-0.0 size=N/A time=00:22:08.11 bitrate=N/A speed=19.8x    frame=32093 fps=475 q=-0.0 size=N/A time=00:22:18.54 bitrate=N/A speed=19.8x    frame=32360 fps=475 q=-0.0 size=N/A time=00:22:29.68 bitrate=N/A speed=19.8x    frame=32604 fps=475 q=-0.0 size=N/A time=00:22:39.85 bitrate=N/A speed=19.8x    frame=32760 fps=474 q=-0.0 size=N/A time=00:22:46.36 bitrate=N/A speed=19.8x    frame=32907 fps=472 q=-0.0 size=N/A time=00:22:52.49 bitrate=N/A speed=19.7x    frame=33090 fps=471 q=-0.0 size=N/A time=00:23:00.12 bitrate=N/A speed=19.7x    frame=33296 fps=471 q=-0.0 size=N/A time=00:23:08.72 bitrate=N/A speed=19.6x    frame=33455 fps=470 q=-0.0 size=N/A time=00:23:15.35 bitrate=N/A speed=19.6x    frame=33647 fps=469 q=-0.0 size=N/A time=00:23:23.36 bitrate=N/A speed=19.6x    frame=33861 fps=469 q=-0.0 size=N/A time=00:23:32.28 bitrate=N/A speed=19.5x    frame=34058 fps=468 q=-0.0 size=N/A time=00:23:40.50 bitrate=N/A speed=19.5x    frame=34209 fps=467 q=-0.0 size=N/A time=00:23:46.80 bitrate=N/A speed=19.5x    frame=34357 fps=466 q=-0.0 size=N/A time=00:23:52.97 bitrate=N/A speed=19.4x    frame=34510 fps=464 q=-0.0 size=N/A time=00:23:59.35 bitrate=N/A speed=19.4x    frame=34675 fps=463 q=-0.0 size=N/A time=00:24:06.23 bitrate=N/A speed=19.3x    [Parsed_ssim_10 @ 000001cab1b15740] SSIM Y:0.994537 (22.625836) U:0.993610 (21.944788) V:0.993416 (21.815018) All:0.994196 (22.362517)
[out#0/null @ 000001caa4a767c0] video:14975KiB audio:272564KiB subtitle:0KiB other streams:0KiB global headers:0KiB muxing overhead: unknown
frame=34850 fps=463 q=-0.0 Lsize=N/A time=00:24:13.53 bitrate=N/A speed=19.3x    
